<svg fill="none" viewBox="0 0 144 30" width="100%" xmlns="http://www.w3.org/2000/svg" class="navbar_logo">
              <g clip-path="url(#clip0_560_1596)" class="navbar_logo-svg">
                <path fill="#1B1B1B" d="M1.59815 22.4796V7.52044C1.59815 4.37015 1.24017 3.03081 0 0.666527V0.584783C4.60268 0.584783 6.04102 0.427583 11.3277 0.427583C21.7349 0.427583 28.0188 5.54601 28.0188 14.8774C28.0188 24.2088 21.9778 29.4026 11.3277 29.4026H0V29.3209C1.27852 27.0384 1.59815 25.5795 1.59815 22.4733V22.4796ZM10.6437 1.38965C9.96608 1.38965 8.483 1.47139 7.36429 1.47139V28.4217H11.2063C19.1714 28.428 21.7349 23.8629 21.7349 15.437C21.7349 5.79124 18.5705 1.35192 11.0912 1.39593H10.6501L10.6437 1.38965ZM70.5872 30C61.3052 30 54.8167 23.6617 54.8167 15.1603C54.8167 6.65898 61.6695 0 71.1498 0C75.5095 0 78.9935 0.943199 81.2757 1.69147L82.0748 8.50136L81.7168 8.62083C77.6766 3.06854 75.0748 0.823727 70.7918 0.823727C63.7471 0.823727 61.1453 6.80989 61.1453 15.1541C61.1453 23.4982 64.2266 29.17 70.632 29.17C75.9123 29.17 78.7953 25.3092 81.8766 19.5242L82.2346 19.6437L81.4355 27.1201C80.5981 27.7489 76.2319 29.9937 70.5872 29.9937V30ZM109.416 29.3335C111.417 26.4976 112.018 24.9633 112.018 21.266V6.45777C111.82 3.77908 111.136 2.60323 109.173 0.672815V0.591071H117.336L126.408 21.2408L135.428 0.591071H144V0.666527C141.839 2.91134 141.162 4.09348 141.162 7.55816V21.7313C141.162 25.2337 141.603 26.6925 142.76 29.3272V29.4089H133.797V29.3272C135.038 26.768 135.396 25.196 135.396 21.7313V4.68455L124.912 28.5412H123.908L113.546 4.56508L113.667 21.2534C113.667 24.8753 114.428 26.529 116.748 29.3209V29.4026H109.422V29.3209L109.416 29.3335ZM30.5247 29.4152V29.3335C31.5667 26.7743 32.0845 25.1582 32.0845 22.0897V7.91029C32.0845 4.84175 31.6051 3.18801 30.5247 0.666527V0.584783H50.0542L51.5756 7.86628L51.2176 7.98575C49.0953 5.82268 45.8542 2.01844 43.9364 1.89897L37.8954 1.58457V14.2675H40.8552C42.8944 14.2675 44.6588 11.8026 46.1802 10.306H46.5382V19.2035H46.1802C44.6971 17.8642 42.9008 15.261 40.8552 15.261H37.8954V28.4091L44.4159 28.4594C47.4971 28.34 51.1409 23.8881 53.34 20.895L53.6979 21.0145L51.8185 29.4026H30.5247V29.4152ZM84.7597 29.4152V29.3335C85.8017 26.7743 86.3195 25.1582 86.3195 22.0897V7.91029C86.3195 4.84175 85.84 3.18801 84.7597 0.666527V0.584783H104.289L105.811 7.86628L105.453 7.98575C103.33 5.82268 100.089 2.01844 98.1714 1.89897L92.1303 1.58457V14.2675H95.0901C97.1294 14.2675 98.8937 11.8026 100.415 10.306H100.773V19.2035H100.415C98.9321 17.8642 97.1358 15.261 95.0901 15.261H92.1303V28.4091L98.6508 28.4594C101.732 28.34 105.376 23.8881 107.575 20.895L107.933 21.0145L106.053 29.4026H84.7597V29.4152Z" class="navbar_logo-path"></path>
              </g>
            </svg>